<svg xmlns="http://www.w3.org/2000/svg" width="800" height="400" viewBox="0 0 800 400">
  <rect width="800" height="400" fill="#fafafa"/>
  <text x="400" y="28" text-anchor="middle" font-family="Arial" font-size="13" font-weight="bold" fill="#111">BOOKNEST ANGULAR — WIREFRAMES BAJA FIDELIDAD</text>

  <!-- CATALOG -->
  <g transform="translate(20, 48)">
    <rect width="240" height="280" rx="12" fill="none" stroke="#111" stroke-width="1.5"/>
    <text x="15" y="24" font-family="Arial" font-size="11" font-weight="bold" fill="#111">CATÁLOGO</text>
    <rect x="15" y="34" width="210" height="24" rx="6" fill="none" stroke="#999"/>
    <text x="22" y="50" font-family="Arial" font-size="8" fill="#555">🔍 Buscar libro, autor...</text>
    <rect x="15" y="66" width="50" height="18" rx="4" fill="none" stroke="#999"/>
    <text x="22" y="79" font-family="Arial" font-size="7" fill="#555">Todos</text>
    <rect x="72" y="66" width="50" height="18" rx="4" fill="none" stroke="#999"/>
    <text x="79" y="79" font-family="Arial" font-size="7" fill="#555">Ficción</text>
    <rect x="129" y="66" width="50" height="18" rx="4" fill="none" stroke="#999"/>
    <text x="136" y="79" font-family="Arial" font-size="7" fill="#555">Técnico</text>
    <rect x="15" y="94" width="95" height="110" rx="8" fill="none" stroke="#999" stroke-dasharray="3,2"/>
    <text x="45" y="150" font-family="Arial" font-size="8" fill="#777">📖 Portada</text>
    <text x="15" y="220" font-family="Arial" font-size="8" font-weight="bold" fill="#111">Título del libro</text>
    <text x="15" y="232" font-family="Arial" font-size="7" fill="#777">Autor — 2024</text>
    <rect x="15" y="244" width="95" height="24" rx="6" fill="none" stroke="#111"/>
    <text x="25" y="260" font-family="Arial" font-size="7" fill="#111">Ver detalle</text>
    <rect x="120" y="94" width="95" height="110" rx="8" fill="none" stroke="#999" stroke-dasharray="3,2"/>
    <rect x="120" y="212" width="95" height="30" rx="6" fill="none" stroke="#999" stroke-dasharray="3,2"/>
    <text x="150" y="230" font-family="Arial" font-size="8" fill="#777">Disponible ✅</text>
  </g>

  <!-- DETAIL -->
  <g transform="translate(280, 48)">
    <rect width="240" height="280" rx="12" fill="none" stroke="#111" stroke-width="1.5"/>
    <text x="15" y="24" font-family="Arial" font-size="11" font-weight="bold" fill="#111">DETALLE LIBRO</text>
    <rect x="15" y="34" width="70" height="100" rx="8" fill="none" stroke="#999" stroke-dasharray="3,2"/>
    <text x="30" y="88" font-family="Arial" font-size="8" fill="#777">📖 Portada</text>
    <text x="95" y="48" font-family="Arial" font-size="10" font-weight="bold" fill="#111">Título del Libro</text>
    <text x="95" y="62" font-family="Arial" font-size="8" fill="#777">Autor Famoso</text>
    <text x="95" y="76" font-family="Arial" font-size="7" fill="#555">Categoría: Ficción</text>
    <text x="95" y="90" font-family="Arial" font-size="7" fill="#555">Año: 2024</text>
    <text x="95" y="104" font-family="Arial" font-size="7" fill="#555">Copias: 3/5</text>
    <rect x="15" y="144" width="210" height="40" rx="6" fill="none" stroke="#999"/>
    <text x="22" y="160" font-family="Arial" font-size="7" fill="#555">Descripción del libro...</text>
    <rect x="15" y="194" width="210" height="24" rx="6" fill="none" stroke="#111"/>
    <text x="55" y="210" font-family="Arial" font-size="8" fill="#111">📋 Pedir préstamo</text>
    <text x="15" y="240" font-family="Arial" font-size="8" font-weight="bold" fill="#111">Préstamos recientes</text>
    <rect x="15" y="248" width="210" height="16" rx="3" fill="none" stroke="#eee"/>
    <rect x="15" y="270" width="210" height="16" rx="3" fill="none" stroke="#eee"/>
  </g>

  <!-- LOANS + ADMIN -->
  <g transform="translate(540, 48)">
    <rect width="240" height="280" rx="12" fill="none" stroke="#111" stroke-width="1.5"/>
    <text x="15" y="24" font-family="Arial" font-size="11" font-weight="bold" fill="#111">PRÉSTAMOS / ADMIN</text>
    <text x="15" y="44" font-family="Arial" font-size="9" fill="#555">Mis préstamos activos</text>
    <rect x="15" y="52" width="210" height="40" rx="6" fill="none" stroke="#999" stroke-dasharray="3,2"/>
    <text x="22" y="66" font-family="Arial" font-size="8" fill="#555">📖 Título — vence 15/08</text>
    <text x="22" y="82" font-family="Arial" font-size="7" fill="#777">Devolver | Renovar</text>
    <text x="15" y="110" font-family="Arial" font-size="9" fill="#555">Historial de préstamos</text>
    <rect x="15" y="118" width="210" height="16" rx="3" fill="none" stroke="#eee"/>
    <rect x="15" y="140" width="210" height="16" rx="3" fill="none" stroke="#eee"/>
    <rect x="15" y="162" width="210" height="16" rx="3" fill="none" stroke="#eee"/>
    <text x="15" y="200" font-family="Arial" font-size="9" font-weight="bold" fill="#555">Admin Panel</text>
    <rect x="15" y="208" width="65" height="20" rx="4" fill="none" stroke="#999"/>
    <text x="22" y="222" font-family="Arial" font-size="7" fill="#555">📚 Libros</text>
    <rect x="88" y="208" width="65" height="20" rx="4" fill="none" stroke="#999"/>
    <text x="95" y="222" font-family="Arial" font-size="7" fill="#555">✍ Autores</text>
    <rect x="161" y="208" width="65" height="20" rx="4" fill="none" stroke="#999"/>
    <text x="168" y="222" font-family="Arial" font-size="7" fill="#555">📂 Categ.</text>
    <rect x="15" y="240" width="210" height="24" rx="6" fill="none" stroke="#999"/>
    <text x="22" y="256" font-family="Arial" font-size="8" fill="#555">CRUD de libros con form</text>
  </g>

  <text x="400" y="355" text-anchor="middle" font-family="Arial" font-size="10" fill="#777">4 pantallas: Catálogo, Detalle, Préstamos, Admin CRUD</text>
  <text x="400" y="375" text-anchor="middle" font-family="Arial" font-size="10" fill="#aaa">Angular 19 SPA con lazy loading, JWT auth y guards por rol (ADMIN/USER)</text>
</svg>
